<?xml version="1.0" encoding="UTF-8"?>
<svg id="logo" xmlns="http://www.w3.org/2000/svg" version="1.1" viewBox="0 0 2048 2048">
  <!-- Generator: Adobe Illustrator 29.1.0, SVG Export Plug-In . SVG Version: 2.1.0 Build 142)  -->
  <path id="frame" d="M1223.7,2046.7c-3.9.9-6.7,2.9-12.1-1.3,141.6-144,124.5-397.6-33.5-522.3,5.3-8.1,11.2-8.2,16.7-9.1,147.9-27.4,305.6-90.3,394.4-217.7-24.8-16.2-206.8-6.5-192.7-40.4,2-7.7,7.6-8.6,14.4-7.8,62.2,7.7,124.5,13.2,186.9,18.3,18.5,1.5,23.3-2.9,30.5-27.4-3.1-5.1-8.6-5.5-13.7-5.9-65.8-6.3-131.7-11.8-197.6-15.6-12.7,1.2-24.5-6.1-18.6-19.7,1.5-6.3,7.2-5.7,11.9-5.4,46.3,3,92.6,6,139,9.2,22.1-3.1,91.8,18.7,97.9-4.2,10.8-30.5,11-30.6-21.7-30.3-69.2.7-138.4,1.8-207.7,2.5-5.8,0-12.6,1.9-16.6-4.9-6.3-10.9-.3-19.4,14.6-19.8,76.7-2.8,153.3-3.2,230-2.8,18.6,0,19-.5,22.8-19.3,23.8-126.4,2.8-263.2-64.5-373.3-3.8-5.9-5.4-11.7-2.7-18.7,4.8-88.2-1.3-177.7,2-266.3,1.1-52.1-51.8-88.3-101.1-58.8-65.3,38.8-127.8,81.9-189.7,125.6-19.1,14-103.5-20.7-134.9-22.5-11.9-2.7-15.1,2.2-15.1,12.7-2.8,42.3,6.1,87.8-4,128.6-12.4,23.1-49.8,15.6-47.4-12.2-.1-37.8-.2-75.7-.3-113.5,0-18.6-.6-19.1-18.8-20.5-168.6.2-134-34.3-139.7,129.7,1.1,41.1-52.7,41.4-51.6.2-.3-35.6-.1-71.3-.2-106.9,0-17.9-.8-19.6-18.8-16.6-37.1,6.3-74.6,11.4-110.2,24.1-10.5,3.7-17.8,2.4-27.5-4.1-61.5-41.4-123.4-82.3-185.8-122.2-37.1-30.4-106.9-10.5-105.6,43.1-.9,89.7-1.7,179.5.3,269.2.4,15.9-3.5,26.8-10.6,39.4-36.7,65.7-58.8,135.9-64.1,211.3-.6,30.9-12.2,172.6,28.3,171.1,81.1,0,162.2-.5,243.3.8,6.2.4,12,2.7,11.5,9.9,2.2,17.5-16.9,18-30,16.9-70.6-.8-141.1-1.7-211.6-2.5-7.7,1-21.1-3.1-21.5,8.3.8,22.8,13.5,33.5,35.6,31.7,70.7-5.6,141.4-12.5,212.2-15.4,7.2-.3,15.9-2.6,15.9,9.6s-4.4,15.6-15.8,16.2c-73,7.1-150.7,3.5-221,22.4,6.6,25.5,15.7,32.3,40,29.3,58.2-7.1,116.4-14.6,174.7-21.3,6.8-.8,16.1-6.5,20.6,4.5,20.4,35.5-168.4,31.6-193.1,46.9,90,136.3,260.1,183.6,408.7,220.9-158.3,126.2-187.5,382.2-35.9,526.7C316.8,1967.6-72,1426.9,11.3,902.8,108.6,74.4,1136.5-305.9,1730.9,290.2c595.2,570.9,310.9,1603.5-507.2,1756.5M414.1,1490.7c-19.7-26.4-27-56.7-28.7-88.9-1.3-57.4-76.8-59.5-85.2-6.1-28.3,114.6,63.7,217.1,162.3,259.3,56.2,27.4,131,47.5,149,115.9,6.3,22.4,2.6,44.3-2.2,66.4-12.9,61.9,81.6,70.5,96.2,12.5,36.2-264.6-182.7-228-291.4-359M1682.2,1258.9c-18.8-3.6-29.9-2.7-33.5,2.7,13.7,8.3,146.9,26,155,20.6-33.6-17.8-80.8-14.1-121.5-23.2M1817,1177.8c-20.1,2.3-126.9-15.3-129.3-1.6-.6,6.4,5.6,5.6,9.7,5.9,40.1,2.7,80.3,5.4,120.5,7.8,16.9,4.4,18.5-13.4-.8-12.1M359.6,1257.7c-36.6,9.6-80.2,5.3-112.9,23.4,12.3,7.3,143.7-14.3,153-25.6-13.3-3.7-25.5,1.8-40,2.2M231,1179.6c-7.8,9.6,0,10.3,6.4,10,22.2-4.9,118.2,1.7,122.9-15.9-43.4-.8-85.4,3-129.2,5.9Z"/>
  <path id="nose_and_mouth" d="M1057.7,1264c-9.9-7.4-18.9-14.2-28.5-21.5-34.2,37.4-103.6,42.7-125.1-10.3-12.3-22.1,16.4-37.4,27.4-14.3,25.3,59.3,112.4-1.6,64.3-44.2-15.8-18.7-53.1-30.2-46.7-59.9,4.1-13.4,15.1-19.1,28.2-20.1,32.9,0,173.3-20.1,121.6,47.3-19.8,21.3-61.8,40.1-47.1,75.5,10,23.9,48.6,38.6,65.2,14.1,8-10.5,16.2-30.5,32.2-20.6,8.1,4.6,9.2,12,6.1,20.6-13.2,37.2-63.2,53.9-97.7,33.6h0Z"/>
  <path id="right_ear" d="M1401.6,573.8c-7.1,3.2-12.1,1.6-15.4-4.2-8.9-18.5,18-29.8,29.5-39.2,32.5-12.8,141.4-121.5,146.4-42.6-.2,54.1-1.4,108.1-2,162.2,0,10.3-5.2,15.9-14.7,16.7-10.5.8-12-7.7-12.2-15.2-2.6-54.1,2.9-106.8-3.9-160.7-42.9,28-84.8,55.3-127.8,83.1h0Z"/>
  <path id="left_ear" d="M492.9,525.1c-15.2-147.5,116.8-8.3,169.9,21,8.2,6.2,15.2,13.7,7.6,24.3-7.3,10.1-16.3,5.8-24.1,0-39.1-28.7-79.4-55-120.3-81-18.2,23.7,14.3,180.7-21.1,174.3-23.8,2.5-7.3-115.1-11.9-138.5h0Z"/>
  <path id="right_eye" d="M1328.9,1086.5c-65.9-53,7.6-173.1,67.7-91.9,31.2,44-11.9,128.8-67.7,91.9Z"/>
  <path id="left_eye" d="M733.1,979c37.8,34.1,27.6,110.8-27.1,116.5-86.9-.5-57-174.1,27.1-116.5Z"/>
</svg>