<svg xmlns="http://www.w3.org/2000/svg" version="1.1" xmlns:xlink="http://www.w3.org/1999/xlink" width="512" height="512" x="0" y="0" viewBox="0 0 25 25" style="enable-background:new 0 0 512 512" xml:space="preserve"><g><path d="M6.381 23.078c1.807 0 3.27-1.625 3.39-3.675h.022V9.058l10.4-1.461v4.132a3.02 3.02 0 0 0-1.575-.464c-1.885 0-3.412 1.763-3.412 3.938s1.527 3.937 3.412 3.937 3.413-1.762 3.413-3.937V2.078l-14.075 2.1v11.489a3.02 3.02 0 0 0-1.575-.464c-1.885 0-3.413 1.763-3.413 3.937.001 2.175 1.529 3.938 3.413 3.938z" fill="#e72929" opacity="1" data-original="#000000"></path></g></svg>