<svg height="512" viewBox="0 0 28 59" width="512" xmlns="http://www.w3.org/2000/svg"><g id="Page-1" fill="none" fill-rule="evenodd"><g id="017---DOS-Bomb" fill-rule="nonzero"><path id="Shape" d="m2.9 16.47-.91-.3c-1.18563432-.3993267-1.98567566-1.5089317-1.99-2.76v-10.41c.0032948-1.10320187.89679813-1.9967052 2-2h1.97c.84645816.00529103 1.64902582.37739058 2.2 1.02l7.83 8.98 7.83-8.98c.5509742-.64260942 1.3535418-1.01470897 2.2-1.02h1.97c1.1032019.0032948 1.9967052.89679813 2 2v10.41c-.0043243 1.2510683-.8043657 2.3606733-1.99 2.76l-.91.3z" fill="#2c3e50"/><rect id="Rectangle-path" fill="#35495e" height="48" rx="14" width="28" y="11"/><path id="Shape" d="m14 17c-.5522847 0-1-.4477153-1-1v-15c0-.55228475.4477153-1 1-1s1 .44771525 1 1v15c0 .5522847-.4477153 1-1 1z" fill="#3f5c6c"/><path id="Rectangle-path" d="m0 25h28v20h-28z" fill="#f0c419"/><g fill="#ecf0f1"><path id="Shape" d="m6 40h-1.5c-.82842712 0-1.5-.6715729-1.5-1.5v-7c0-.8284271.67157288-1.5 1.5-1.5h1.5c1.65685425 0 3 1.3431458 3 3v4c0 1.6568542-1.34314575 3-3 3zm-1-2h1c.55228475 0 1-.4477153 1-1v-4c0-.5522847-.44771525-1-1-1h-1z"/><path id="Shape" d="m14 40c-1.6568542 0-3-1.3431458-3-3v-4c0-1.6568542 1.3431458-3 3-3s3 1.3431458 3 3v4c0 1.6568542-1.3431458 3-3 3zm0-8c-.5522847 0-1 .4477153-1 1v4c0 .5522847.4477153 1 1 1s1-.4477153 1-1v-4c0-.5522847-.4477153-1-1-1z"/><path id="Shape" d="m22 40c-1.0719329-.0013692-2.0622534-.5727079-2.6-1.5-.2561528-.4759933-.0876904-1.0693836.3803603-1.3397768s1.0662521-.1199053 1.3506397.3397768c.2424614.4199504.7512754.6054271 1.2071135.440026.455838-.1654012.7273175-.6340079.6440595-1.1117253-.083258-.4777175-.4972567-.826857-.982173-.8283007-1.4556384-.0009336-2.7005654-1.0466857-2.9527216-2.4803179-.2521561-1.4336323.5612283-2.8414129 1.9291876-3.3389785 1.3679593-.4975655 2.8957143.0586764 3.623534 1.3192964.1917488.3099415.19969.6996593.0207263 1.0171547s-.5164881.5124835-.880931.5089145c-.3644428-.003569-.6980838-.2051298-.8707953-.5260692-.2424614-.4199504-.7512754-.6054271-1.2071135-.440026-.455838.1654012-.7273175.6340079-.6440595 1.1117253.083258.4777175.4972567.826857.982173.8283007 1.6568542 0 3 1.3431458 3 3s-1.3431458 3-3 3z"/></g></g></g></svg>