<svg xmlns="http://www.w3.org/2000/svg" version="1.1" xmlns:xlink="http://www.w3.org/1999/xlink"
    width="512" height="512" x="0" y="0" viewBox="0 0 64 64" style="enable-background:new 0 0 512 512"
    xml:space="preserve" class=""><g><path d="M62 22.9v18.3c0 .5-.4.9-.9.9h-2.5c-.4 0-.7-.2-.8-.6L54 30v11.1c0 .5-.4.9-.9.9h-2.3c-.5 0-.9-.4-.9-.9V22.9c0-.5.4-.9.9-.9h2.5c.4 0 .7.2.8.6L58 34V22.9c0-.5.4-.9.9-.9h2.3c.4 0 .8.4.8.9zM42.7 42h-5.3c-.9 0-1.7-.4-2.4-1-.6-.6-1-1.5-1-2.4V25.3c0-.9.4-1.7 1-2.4.6-.6 1.5-1 2.4-1h5.3c.9 0 1.7.4 2.4 1 .6.6 1 1.5 1 2.4v13.3c0 .9-.4 1.7-1 2.4-.7.6-1.5 1-2.4 1zm-3.8-4h2.3c.5 0 .9-.4.9-.9V26.9c0-.5-.4-.9-.9-.9h-2.3c-.5 0-.9.4-.9.9v10.3c0 .4.4.8.9.8zM26.7 42h-7.8c-.5 0-.9-.4-.9-.9v-2.3c0-.5.4-.9.9-.9h6.3c.5 0 .9-.4.9-.9v-2.3c0-.5-.4-.9-.9-.9H22c-1.1 0-2.1-.4-2.8-1.2-.8-.5-1.2-1.5-1.2-2.6v-4.7c0-.9.4-1.7 1-2.4.6-.6 1.5-1 2.4-1h7.8c.5 0 .9.4.9.9v2.3c0 .5-.4.9-.9.9h-6.3c-.5 0-.9.4-.9.9v2.3c0 .5.4.9.9.9H26c1.1 0 2.1.4 2.8 1.2s1.2 1.8 1.2 2.8v4.7c0 .9-.4 1.7-1 2.4-.6.4-1.4.8-2.3.8zM10.7 42H5.3c-.9 0-1.7-.4-2.4-1-.6-.6-1-1.5-1-2.4v-3.8c.1-.4.5-.8.9-.8h2.3c.5 0 .9.4.9.8v2.3c0 .5.4.9.8.9h2.3c.5 0 .8-.4.8-.8V22.8c0-.5.4-.8.8-.8H13c.5 0 .8.4.8.8v15.8c0 .9-.4 1.7-1 2.4-.4.6-1.2 1-2.1 1z" fill="#ea8f08" opacity="1" data-original="#000000"></path></g></svg>