<svg viewBox="0 0 24 24" xmlns="http://www.w3.org/2000/svg"><g id="Icon"><rect fill="#fbc02d" height="14.5" rx="1.75" width="19.5" x="2.25" y="2.25"/><path d="m14 15.25h-4a.76.76 0 0 0 -.75.75v5a.75.75 0 0 0 1.16.63l1.59-1 1.59 1a.78.78 0 0 0 .41.12.77.77 0 0 0 .36-.09.76.76 0 0 0 .39-.66v-5a.76.76 0 0 0 -.75-.75z" fill="#ef5350"/><g fill="#fb8c00"><path d="m17 9.75h-10a.75.75 0 0 1 0-1.5h10a.75.75 0 0 1 0 1.5z"/><path d="m15 6.75h-6a.75.75 0 0 1 0-1.5h6a.75.75 0 0 1 0 1.5z"/><circle cx="12" cy="14.5" r="3.25"/></g></g></svg>