<svg id="Layer_1" enable-background="new 0 0 56.693 56.693" height="56.693" viewBox="0 0 56.693 56.693" width="56.693" xmlns="http://www.w3.org/2000/svg"><g fill="#474a56"><path d="m51.261 8.631h-45.985c-.947 0-1.716.77-1.716 1.717v38.38c0 .949.769 1.717 1.716 1.717h45.985c.947 0 1.717-.768 1.717-1.717v-38.38c0-.948-.77-1.717-1.717-1.717zm-5.145 3.482c.957 0 1.734.775 1.734 1.734 0 .957-.777 1.732-1.734 1.732s-1.732-.775-1.732-1.732c0-.958.775-1.734 1.732-1.734zm-6.178 0c.957 0 1.734.775 1.734 1.734 0 .957-.777 1.732-1.734 1.732s-1.734-.775-1.734-1.732c0-.958.777-1.734 1.734-1.734zm-6.177 0c.957 0 1.732.775 1.732 1.734 0 .957-.775 1.732-1.732 1.732s-1.734-.775-1.734-1.732c-.001-.958.777-1.734 1.734-1.734zm15.785 34.9h-42.553v-28.314h42.553z"/><path d="m13.006 39.659c.1.053.208.078.316.078.139 0 .277-.043.395-.125l8.78-6.178c.183-.129.292-.338.292-.562v-2.604c0-.225-.109-.436-.294-.564l-8.78-6.134c-.209-.146-.483-.163-.711-.045-.226.117-.369.354-.369.607v3.05c0 .209.096.406.26.537l4.822 3.841-4.825 3.883c-.161.129-.257.326-.257.535v3.07c0 .26.145.494.371.611z"/><path d="m21.964 39.675v1.107c0 .566.461 1.027 1.029 1.027h11.373c.568 0 1.029-.461 1.029-1.027v-1.107c0-.568-.461-1.031-1.029-1.031h-11.372c-.569 0-1.03.462-1.03 1.031z"/></g></svg>