<?xml version="1.0" encoding="UTF-8"?>
<svg id="Layer_1" xmlns="http://www.w3.org/2000/svg" version="1.1" viewBox="0 0 600 548">
  <!-- Generator: Adobe Illustrator 29.1.0, SVG Export Plug-In . SVG Version: 2.1.0 Build 142)  -->
  <defs>
    <style>
      .st0 {
        fill: #050808;
      }

      .st1 {
        fill: #060909;
      }

      .st2 {
        fill: #070a0a;
      }
    </style>
  </defs>
  <path class="st0" d="M574.5,195.3c2.1-61.5-2.6-124.4-22.3-184.1-3.5-10.4-3.6-10.4-15-7.4-37,14-72.6,27.8-106,49-.3-.4-.3-.3-.3-.3-10.8,10.5-19.9,21.7-37.2,15.8-46.6-11.1-96.3-11.4-144.2-8-16.4,1.9-32.7,4.9-48.6,9.1-5.9,3.8-9.9,2.5-14.7-2.3-6.3-6.1-13.9-11-20.7-16.9v-.6c-11.6-6.4-116.7-65-115.7-41.2-15.8,52.4-27.2,108.2-22,163.1,1.5,12-.3,21.4-6.8,31.9-30.1,59.5-25.7,131.4-4.5,193-.3,0,.9,2,.6,2,69,197.3,498.1,196.4,566.8-.6h-.1c18.9-64.8,28.3-142.3-9.6-202.5h.3ZM579.5,303.5c-3.4,8-16.5,6.9-23.2,10.8-1.3,38.2-10.1,90.9-43.1,114.7-7.6,3.9-16.4,4.4-20.2,13.7-60.4,94.9-336.7,94.3-390.2-7.9-44.1-12.8-54.1-74.9-57.1-114-2.6-20.4-26.9-.8-23.5-31.1,0-12.9,0-25.7-.3-38.5,0-3.9.8-5.9,5.3-6.6,21.4-2.9,43.7-8.8,65.3-9.8,15.8,5.5,21.3-6.1,33.1-12.3,19.9-7.4,40.1-13.3,60.4-16v-.4c68-8.4,263.2-17.4,311.1,28.7,27.1-1.4,51.5,6.6,77.9,9.9,3.6.5,5.1,1.9,5.1,5.5,0,17.8,0,35.6-.6,53.2Z"/>
  <path class="st0" d="M23.5,415.6"/>
  <path class="st2" d="M545.5,310.8c4.9,166.6-200.8,170.1-223,13.4-4.8-20.5-40-17.9-43.7,1-10.1,38-24.5,83.4-62.9,101.1-77.2,29.4-154.6-2-157.3-91.6-1.9-18.7-.6-33.1-23-37.5v-40.7c43.3-7.5,91.3-13.2,135.8-9.4,56.7,1,108.5,44.3,165.1,23.5,71.1-28.7,150.1-28.8,224.7-14.5,3.9.5,5.3,1.9,5.3,5.9-.1,9.9.4,19.7,0,29.6-2.5,9.3-16.4,8.5-21,18.4M81.6,300.4c-3.8,39.1.3,98.3,46.2,109.6,72.9,16,124-13.4,124.4-92.3,2.5-48.5-76.3-47.8-110.6-48.1-21.8,2.8-57.1,1.3-60,30.9M502.2,390.7c16.3-20.4,32.9-103.8.1-114.1-43.5-12.7-92.3-8.4-134.3,8-9.8,4.1-15.9,11.9-17,22.4-2.9,35.3,7.6,79.4,41.1,97.3,30.3,13.8,88.9,17.7,109.3-13.2l.8-.3M532.5,280.3c3.1,2.1,6,5.1,9.5,6.1,5.3,1.5,11.3-5.4,9.6-10.1-3.9-9.8-20.3-8.6-19,4M54.7,269.9c-8.8,4.5-3,19.2,6.6,15.8,14.8-4.5,5.6-20-6.6-15.8h0Z"/>
  <path class="st2" d="M299.3,451.3c-14.2-4.6-23.8-13.4-27.7-27.7-6.6-18.7,36.6-9.9,47-11.5,29.2,2.5-4,39.6-19.3,39.2h0Z"/>
  <path class="st1" d="M405.4,326.9c4.9-43.5,47.2-40.6,54,.4,6.4,24.2-4.8,77.3-38.8,60.1-20-14.3-14.9-39.1-15.2-60.5Z"/>
  <path class="st1" d="M177.3,390.2c-39.3,5.6-44.6-58.1-28.4-81.9,46.3-52.6,69.9,65.3,28.4,81.9Z"/>
</svg>