<?xml version="1.0" encoding="UTF-8"?>
<svg id="logo" xmlns="http://www.w3.org/2000/svg" viewBox="0 0 456.25 454.59">
  <path id="frame" d="M272.62,454.3c-.86.2-1.49.65-2.7-.28,31.54-31.96,27.73-88.25-7.46-115.93,1.18-1.8,2.49-1.81,3.72-2.03,32.96-6.08,68.08-20.04,87.86-48.32-5.52-3.59-46.06-1.45-42.93-8.96.44-1.7,1.69-1.92,3.2-1.73,13.85,1.7,27.74,2.92,41.64,4.07,4.13.34,5.2-.64,6.8-6.09-.7-1.13-1.92-1.21-3.05-1.32-14.66-1.4-29.33-2.63-44.03-3.47-2.82.27-5.46-1.36-4.14-4.38.34-1.39,1.6-1.27,2.65-1.2,10.32.66,20.64,1.34,30.96,2.05,4.93-.69,20.46,4.15,21.8-.94,2.4-6.77,2.45-6.8-4.83-6.72-15.42.16-30.84.39-46.27.55-1.29.01-2.81.42-3.69-1.09-1.4-2.41-.06-4.3,3.25-4.4,17.08-.62,34.16-.7,51.25-.63,4.14,0,4.23-.11,5.09-4.29,5.31-28.06.63-58.42-14.36-82.86-.84-1.3-1.21-2.6-.61-4.14,1.08-19.58-.3-39.45.44-59.11.24-11.56-11.54-19.6-22.53-13.05-14.55,8.61-28.46,18.17-42.27,27.89-4.26,3.1-23.05-4.59-30.05-5-2.64-.59-3.36.48-3.36,2.82-.62,9.39,1.35,19.48-.89,28.55-2.76,5.13-11.09,3.46-10.55-2.7-.03-8.4-.04-16.8-.06-25.19-.01-4.13-.14-4.24-4.19-4.54-37.57.04-29.85-7.61-31.12,28.79.25,9.12-11.75,9.18-11.5.04-.07-7.91-.03-15.82-.04-23.73,0-3.98-.17-4.36-4.18-3.68-8.26,1.4-16.61,2.52-24.55,5.34-2.33.83-3.97.53-6.12-.91-13.7-9.19-27.49-18.26-41.39-27.13-8.26-6.74-23.82-2.32-23.53,9.56-.2,19.92-.37,39.85.06,59.76.08,3.53-.79,5.94-2.37,8.74-8.17,14.58-13.09,30.16-14.29,46.9-.14,6.85-2.71,38.32,6.31,37.98,18.06-.02,36.14-.12,54.2.17,1.38.09,2.67.59,2.57,2.19.48,3.89-3.77,3.99-6.69,3.75-15.72-.18-31.44-.38-47.15-.56-1.72.23-4.69-.68-4.79,1.84.18,5.05,3,7.43,7.93,7.04,15.75-1.24,31.49-2.77,47.28-3.42,1.6-.07,3.54-.57,3.54,2.12,0,2.35-.98,3.47-3.51,3.6-16.27,1.58-33.58.78-49.23,4.97,1.46,5.66,3.49,7.16,8.92,6.51,12.97-1.57,25.94-3.23,38.92-4.73,1.51-.17,3.58-1.45,4.58,1,4.54,7.89-37.51,7.01-43.02,10.41,20.06,30.25,57.94,40.76,91.04,49.04-35.27,28.01-41.76,84.84-7.99,116.9C70.58,436.74-16.04,316.72,2.51,200.39,24.2,16.51,253.18-67.9,385.62,64.42c132.6,126.73,69.27,355.92-113,389.88M92.25,330.88c-4.38-5.85-6.01-12.59-6.4-19.74-.28-12.73-17.11-13.21-18.97-1.35-6.3,25.44,14.18,48.18,36.15,57.56,12.52,6.09,29.19,10.55,33.2,25.72,1.4,4.98.58,9.83-.5,14.73-2.88,13.75,18.18,15.64,21.43,2.77,8.07-58.73-40.71-50.61-64.92-79.68M374.77,279.43q-6.27-1.21-7.46.59c3.06,1.84,32.72,5.77,34.54,4.57-7.48-3.94-18.01-3.13-27.07-5.16M404.79,261.43c-4.48.52-28.27-3.39-28.81-.35-.14,1.42,1.25,1.24,2.15,1.31,8.94.61,17.89,1.2,26.84,1.73,3.77.98,4.13-2.98-.18-2.69M80.12,279.16c-8.16,2.12-17.86,1.17-25.16,5.19,2.73,1.62,32.01-3.17,34.08-5.68-2.96-.83-5.67.4-8.92.49M51.47,261.82c-1.73,2.14.02,2.29,1.42,2.21,4.94-1.09,26.33.37,27.37-3.53-9.67-.18-19.02.67-28.79,1.32Z"/>
  <path id="nose_and_mouth" data-name="nose and mouth" d="M235.64,280.56c-2.2-1.64-4.21-3.16-6.34-4.78-7.62,8.31-23.07,9.48-27.87-2.29-2.75-4.91,3.65-8.3,6.11-3.17,5.64,13.16,25.05-.35,14.33-9.82-3.52-4.16-11.83-6.71-10.41-13.29.92-2.98,3.37-4.23,6.28-4.47,7.32.01,38.61-4.47,27.08,10.49-4.42,4.73-13.76,8.91-10.5,16.75,2.22,5.31,10.82,8.57,14.53,3.14,1.78-2.34,3.61-6.78,7.17-4.57,1.8,1.03,2.05,2.66,1.37,4.57-2.95,8.25-14.07,11.97-21.76,7.45Z"/>
  <path id="right_ear" data-name="right ear" d="M312.25,127.36c-1.59.72-2.7.36-3.44-.94-1.99-4.1,4-6.61,6.58-8.7,7.23-2.85,31.5-26.98,32.62-9.45-.04,12-.32,24-.45,36-.02,2.29-1.16,3.53-3.28,3.7-2.33.18-2.68-1.71-2.71-3.38-.59-12.01.64-23.7-.86-35.68-9.55,6.21-18.9,12.28-28.46,18.44Z"/>
  <path id="left_ear" data-name="left ear" d="M109.8,116.56c-3.39-32.74,26.03-1.84,37.86,4.66,1.83,1.38,3.38,3.05,1.69,5.39-1.62,2.24-3.63,1.29-5.38,0-8.72-6.36-17.68-12.2-26.8-17.98-4.06,5.26,3.19,40.12-4.71,38.69-5.31.55-1.62-25.55-2.66-30.75Z"/>
  <path id="right_eye" data-name="right eye" d="M296.06,241.17c-14.69-11.76,1.69-38.42,15.08-20.4,6.96,9.76-2.64,28.59-15.08,20.4Z"/>
  <path id="left_eye" data-name="left eye" d="M163.32,217.31c8.41,7.57,6.14,24.59-6.03,25.85-19.36-.12-12.7-38.64,6.03-25.85Z"/>
</svg>