<?xml version="1.0" encoding="UTF-8"?>
<svg id="logo" xmlns="http://www.w3.org/2000/svg" version="1.1" viewBox="0 0 2048 2048">
  <!-- Generator: Adobe Illustrator 29.1.0, SVG Export Plug-In . SVG Version: 2.1.0 Build 142)  -->
  <path id="frame" d="M1195.2,1884.1c-3.3.8-5.6,2.4-10.1-1.1,118.2-120.2,104-332-28-436.1,4.4-6.8,9.4-6.8,13.9-7.6,123.5-22.9,255.2-75.4,329.3-181.8-20.7-13.5-172.7-5.4-160.9-33.7,1.7-6.4,6.3-7.2,12-6.5,51.9,6.4,104,11,156.1,15.3,15.4,1.3,19.5-2.4,25.5-22.9-2.6-4.3-7.2-4.6-11.4-4.9-54.9-5.3-110-9.9-165-13-10.6,1-20.5-5.1-15.5-16.4,1.3-5.3,6-4.8,9.9-4.5,38.7,2.5,77.3,5,116.1,7.7,18.5-2.6,76.6,15.6,81.7-3.5,9-25.5,9.2-25.5-18.1-25.3-57.8.6-115.6,1.5-173.4,2.1-4.8,0-10.5,1.6-13.9-4.1-5.3-9.1-.3-16.2,12.2-16.5,64-2.3,128-2.7,192-2.3,15.5,0,15.9-.4,19-16.1,19.9-105.5,2.3-219.8-53.9-311.7-3.2-4.9-4.5-9.8-2.3-15.6,4-73.6-1.1-148.4,1.7-222.3.9-43.5-43.3-73.7-84.4-49.1-54.5,32.4-106.7,68.4-158.4,104.9-15.9,11.7-86.4-17.3-112.6-18.8-9.9-2.3-12.6,1.8-12.6,10.6-2.3,35.3,5.1,73.3-3.3,107.4-10.4,19.3-41.6,13-39.6-10.2,0-31.6-.2-63.2-.3-94.8,0-15.5-.5-15.9-15.7-17.1-140.8.2-111.9-28.6-116.6,108.3.9,34.3-44,34.6-43.1.2-.3-29.7,0-59.5-.2-89.3,0-14.9-.7-16.4-15.7-13.9-31,5.3-62.3,9.5-92,20.1-8.8,3.1-14.9,2-23-3.4-51.3-34.6-103-68.7-155.1-102-31-25.4-89.3-8.8-88.2,36-.8,74.9-1.4,149.9.3,224.8.3,13.3-2.9,22.4-8.9,32.9-30.6,54.9-49.1,113.5-53.5,176.4-.5,25.8-10.2,144.1,23.6,142.9,67.7,0,135.4-.4,203.1.7,5.2.3,10,2.3,9.6,8.3,1.8,14.6-14.1,15-25,14.1-58.9-.7-117.8-1.4-176.7-2.1-6.4.8-17.6-2.6-18,6.9.7,19,11.3,28,29.7,26.5,59-4.7,118.1-10.4,177.2-12.9,6-.3,13.3-2.2,13.3,8s-3.7,13-13.2,13.5c-61,5.9-125.8,2.9-184.5,18.7,5.5,21.3,13.1,27,33.4,24.5,48.6-5.9,97.2-12.2,145.9-17.8,5.7-.7,13.4-5.4,17.2,3.8,17,29.6-140.6,26.4-161.2,39.2,75.1,113.8,217.2,153.3,341.2,184.4-132.2,105.4-156.6,319.1-30,439.8-437-66.4-761.6-517.8-692.1-955.4C264.1,237.3,1122.4-80.2,1618.7,417.5c497,476.7,259.6,1338.8-423.5,1466.6M519.2,1419.9c-16.4-22-22.5-47.3-24-74.2-1.1-47.9-64.1-49.7-71.1-5.1-23.6,95.7,53.2,181.3,135.5,216.5,46.9,22.9,109.4,39.7,124.4,96.8,5.3,18.7,2.2,37-1.8,55.4-10.8,51.7,68.1,58.9,80.3,10.4,30.2-220.9-152.5-190.4-243.3-299.7M1578,1226.3c-15.7-3-25-2.3-28,2.3,11.4,6.9,122.7,21.7,129.4,17.2-28.1-14.9-67.5-11.8-101.4-19.4M1690.6,1158.6c-16.8,1.9-106-12.8-108-1.3-.5,5.3,4.7,4.7,8.1,4.9,33.5,2.3,67,4.5,100.6,6.5,14.1,3.7,15.4-11.2-.7-10.1M473.7,1225.3c-30.6,8-67,4.4-94.3,19.5,10.3,6.1,120-11.9,127.7-21.4-11.1-3.1-21.3,1.5-33.4,1.8M366.3,1160.1c-6.5,8,0,8.6,5.3,8.3,18.5-4.1,98.7,1.4,102.6-13.3-36.2-.7-71.3,2.5-107.9,4.9h0Z"/>
  <path id="nose_and_mouth" d="M1056.6,1230.6c-8.3-6.2-15.8-11.9-23.8-18-28.6,31.2-86.5,35.7-104.5-8.6-10.3-18.5,13.7-31.2,22.9-11.9,21.1,49.5,93.8-1.3,53.7-36.9-13.2-15.6-44.3-25.2-39-50,3.4-11.2,12.6-15.9,23.5-16.8,27.5,0,144.7-16.8,101.5,39.5-16.5,17.8-51.6,33.5-39.3,63,8.3,20,40.6,32.2,54.4,11.8,6.7-8.8,13.5-25.5,26.9-17.2,6.8,3.8,7.7,10,5.1,17.2-11,31.1-52.8,45-81.6,28.1h0v-.2Z"/>
  <path id="right_ear" d="M1343.7,654.3c-5.9,2.7-10.1,1.3-12.9-3.5-7.4-15.4,15-24.9,24.6-32.7,27.1-10.7,118.1-101.4,122.2-35.6-.2,45.2-1.2,90.3-1.7,135.4,0,8.6-4.3,13.3-12.3,13.9-8.8.7-10-6.4-10.2-12.7-2.2-45.2,2.4-89.2-3.3-134.2-35.8,23.4-70.8,46.2-106.7,69.4h0Z"/>
  <path id="left_ear" d="M585,613.7c-12.7-123.2,97.5-6.9,141.9,17.5,6.8,5.2,12.7,11.4,6.3,20.3-6.1,8.4-13.6,4.8-20.1,0-32.6-24-66.3-45.9-100.4-67.6-15.2,19.8,11.9,150.9-17.6,145.5-19.9,2.1-6.1-96.1-9.9-115.6h0Z"/>
  <path id="right_eye" d="M1283,1082.4c-55-44.3,6.3-144.5,56.5-76.7,26.1,36.7-9.9,107.5-56.5,76.7Z"/>
  <path id="left_eye" d="M785.6,992.6c31.6,28.5,23,92.5-22.6,97.3-72.6-.4-47.6-145.4,22.6-97.3Z"/>
</svg>